<?xml version="1.0" encoding="UTF-8" standalone="no"?>
<!DOCTYPE svg PUBLIC "-//W3C//DTD SVG 1.1//EN" "http://www.w3.org/Graphics/SVG/1.1/DTD/svg11.dtd">
<svg width="100%" height="100%" viewBox="0 0 717 705" version="1.1" xmlns="http://www.w3.org/2000/svg" xmlns:xlink="http://www.w3.org/1999/xlink" xml:space="preserve" xmlns:serif="http://www.serif.com/" style="fill-rule:evenodd;clip-rule:evenodd;stroke-miterlimit:2;">
    <g transform="matrix(4.16667,0,0,4.16667,0,0)">
        <path d="M64.184,4.219C39.74,12.253 15.438,28.926 4.481,52.832C-4.092,71.538 0.849,91.447 9.134,109.259C17.228,126.661 26.31,146.312 40.995,159.55C62.675,179.092 77.289,164.068 98.005,152.582C118.017,141.486 142.634,130.432 153.636,109.076C169.028,79.199 153.866,51.161 136.84,26.383C119.473,1.11 93.24,-5.331 64.184,4.219Z" style="fill:rgb(221,240,233);fill-rule:nonzero;"/>
        <path d="M24.767,40.754C25.704,38.665 26.894,36.622 28.677,35.185C30.461,33.749 32.934,33.01 35.1,33.751C37.393,34.535 38.889,36.761 39.77,39.018C42.697,46.52 39.614,56.84 30.595,57.771C20.542,58.807 21.961,47.009 24.767,40.754Z" style="fill:rgb(221,240,233);fill-rule:nonzero;"/>
        <path d="M24.767,40.754C25.704,38.665 26.894,36.622 28.677,35.185C30.461,33.749 32.934,33.01 35.1,33.751C37.393,34.535 38.889,36.761 39.77,39.018C42.697,46.52 39.614,56.84 30.595,57.771C20.542,58.807 21.961,47.009 24.767,40.754Z" style="fill:none;stroke:rgb(2,75,77);stroke-width:0.98px;"/>
        <path d="M50.317,27.369C47.922,26.296 45.378,25.429 42.894,25.445C40.409,25.462 37.986,26.501 36.997,28.537C35.951,30.692 36.667,33.487 37.862,35.9C41.831,43.92 52.524,50.244 59.919,45.024C68.161,39.205 57.486,30.58 50.317,27.369Z" style="fill:rgb(221,240,233);fill-rule:nonzero;"/>
        <path d="M50.317,27.369C47.922,26.296 45.378,25.429 42.894,25.445C40.409,25.462 37.986,26.501 36.997,28.537C35.951,30.692 36.667,33.487 37.862,35.9C41.831,43.92 52.524,50.244 59.919,45.024C68.161,39.205 57.486,30.58 50.317,27.369Z" style="fill:none;stroke:rgb(2,75,77);stroke-width:0.98px;"/>
        <path d="M42.567,33.203C42.342,33.071 42.097,32.938 41.834,32.943C41.497,32.951 41.227,33.182 41.014,33.418C39.77,34.797 39.413,36.818 40.11,38.541C40.366,39.176 40.758,39.783 40.834,40.452C40.894,40.973 40.758,41.487 40.67,41.999C40.149,45.041 41.443,48.346 43.981,50.447C49.105,54.692 54.733,52.737 53.14,46.422C51.802,41.12 47.521,36.116 42.567,33.203Z" style="fill:rgb(221,240,233);fill-rule:nonzero;"/>
        <path d="M42.567,33.203C42.342,33.071 42.097,32.938 41.834,32.943C41.497,32.951 41.227,33.182 41.014,33.418C39.77,34.797 39.413,36.818 40.11,38.541C40.366,39.176 40.758,39.783 40.834,40.452C40.894,40.973 40.758,41.487 40.67,41.999C40.149,45.041 41.443,48.346 43.981,50.447C49.105,54.692 54.733,52.737 53.14,46.422C51.802,41.12 47.521,36.116 42.567,33.203Z" style="fill:none;stroke:rgb(2,75,77);stroke-width:0.98px;"/>
        <path d="M38.436,33.464C38.618,33.294 38.818,33.118 39.076,33.075C39.406,33.02 39.735,33.196 40.008,33.385C41.61,34.497 42.529,36.398 42.34,38.204C42.27,38.87 42.061,39.533 42.175,40.199C42.264,40.717 42.543,41.192 42.773,41.674C44.143,44.539 43.818,47.995 41.944,50.511C38.157,55.592 32.125,54.732 31.888,48.29C31.689,42.881 34.439,37.217 38.436,33.464Z" style="fill:rgb(221,240,233);fill-rule:nonzero;"/>
        <path d="M38.436,33.464C38.618,33.294 38.818,33.118 39.076,33.075C39.406,33.02 39.735,33.196 40.008,33.385C41.61,34.497 42.529,36.398 42.34,38.204C42.27,38.87 42.061,39.533 42.175,40.199C42.264,40.717 42.543,41.192 42.773,41.674C44.143,44.539 43.818,47.995 41.944,50.511C38.157,55.592 32.125,54.732 31.888,48.29C31.689,42.881 34.439,37.217 38.436,33.464Z" style="fill:none;stroke:rgb(2,75,77);stroke-width:0.98px;"/>
        <path d="M46.455,54.589C45.19,51.526 45.449,47.726 48.018,45.578C48.558,45.127 49.196,44.745 49.552,44.158C49.892,43.598 49.93,42.921 49.939,42.271C49.966,40.378 48.155,35.468 52.043,36.072C54.369,36.433 56.356,38.785 57.47,40.532C59.824,44.225 61.273,48.509 60.81,52.699C60.489,55.604 58.374,61.381 54.693,62.049C50.873,62.742 47.626,57.423 46.455,54.589Z" style="fill:rgb(221,240,233);fill-rule:nonzero;"/>
        <path d="M46.455,54.589C45.19,51.526 45.449,47.726 48.018,45.578C48.558,45.127 49.196,44.745 49.552,44.158C49.892,43.598 49.93,42.921 49.939,42.271C49.966,40.378 48.155,35.468 52.043,36.072C54.369,36.433 56.356,38.785 57.47,40.532C59.824,44.225 61.273,48.509 60.81,52.699C60.489,55.604 58.374,61.381 54.693,62.049C50.873,62.742 47.626,57.423 46.455,54.589Z" style="fill:none;stroke:rgb(2,75,77);stroke-width:0.98px;"/>
        <path d="M37.32,42.863C37.498,42.561 37.714,42.242 38.069,42.132C38.397,42.029 38.762,42.131 39.09,42.253C40.568,42.803 41.867,43.777 42.757,45C43.059,45.415 43.342,45.882 43.826,46.106C44.433,46.388 45.141,46.195 45.8,46.097C49.151,45.597 52.624,47.969 53.663,50.989C54.702,54.009 53.593,57.368 51.383,59.697C47.775,63.5 40.377,64.414 37.041,59.696C33.699,54.967 34.623,47.416 37.32,42.863Z" style="fill:rgb(221,240,233);fill-rule:nonzero;"/>
        <path d="M37.32,42.863C37.498,42.561 37.714,42.242 38.069,42.132C38.397,42.029 38.762,42.131 39.09,42.253C40.568,42.803 41.867,43.777 42.757,45C43.059,45.415 43.342,45.882 43.826,46.106C44.433,46.388 45.141,46.195 45.8,46.097C49.151,45.597 52.624,47.969 53.663,50.989C54.702,54.009 53.593,57.368 51.383,59.697C47.775,63.5 40.377,64.414 37.041,59.696C33.699,54.967 34.623,47.416 37.32,42.863Z" style="fill:none;stroke:rgb(2,75,77);stroke-width:0.98px;"/>
        <path d="M27.025,48.649C27.013,48.407 27.01,48.148 27.149,47.946C27.327,47.687 27.685,47.595 28.018,47.549C29.963,47.28 32.07,48.028 33.357,49.445C33.832,49.968 34.211,50.58 34.81,50.98C35.275,51.291 35.834,51.446 36.367,51.638C39.53,52.776 42.02,55.463 42.734,58.507C44.175,64.654 39.455,68.046 34.249,63.598C29.877,59.864 27.283,53.987 27.025,48.649Z" style="fill:rgb(221,240,233);fill-rule:nonzero;"/>
        <path d="M27.025,48.649C27.013,48.407 27.01,48.148 27.149,47.946C27.327,47.687 27.685,47.595 28.018,47.549C29.963,47.28 32.07,48.028 33.357,49.445C33.832,49.968 34.211,50.58 34.81,50.98C35.275,51.291 35.834,51.446 36.367,51.638C39.53,52.776 42.02,55.463 42.734,58.507C44.175,64.654 39.455,68.046 34.249,63.598C29.877,59.864 27.283,53.987 27.025,48.649Z" style="fill:none;stroke:rgb(2,75,77);stroke-width:0.98px;"/>
        <path d="M32.923,63.696C33.515,60.431 35.408,57.294 38.494,55.65C41.58,54.006 45.905,54.159 48.596,56.454C48.942,55.384 50.195,54.747 51.416,54.717C52.637,54.686 53.825,55.146 54.918,55.683C56.678,56.546 58.315,57.632 59.767,58.898C57.353,63.283 53.016,67.139 47.688,67.834C42.359,68.529 36.817,67.258 32.923,63.696Z" style="fill:rgb(221,240,233);fill-rule:nonzero;"/>
        <path d="M32.923,63.696C33.515,60.431 35.408,57.294 38.494,55.65C41.58,54.006 45.905,54.159 48.596,56.454C48.942,55.384 50.195,54.747 51.416,54.717C52.637,54.686 53.825,55.146 54.918,55.683C56.678,56.546 58.315,57.632 59.767,58.898C57.353,63.283 53.016,67.139 47.688,67.834C42.359,68.529 36.817,67.258 32.923,63.696Z" style="fill:none;stroke:rgb(2,75,77);stroke-width:0.98px;"/>
        <path d="M54.864,50.016C54.883,46.776 55.966,43.551 57.908,40.956C58.724,39.868 59.739,38.854 61.033,38.433C62.327,38.013 63.938,38.342 64.681,39.481C64.918,39.844 65.055,40.261 65.176,40.677C67.384,48.265 64.576,57.524 58.457,62.592C55.666,64.903 52.43,65.235 50.994,61.23C49.194,56.207 54.84,54.171 54.864,50.016Z" style="fill:rgb(221,240,233);fill-rule:nonzero;"/>
        <path d="M54.864,50.016C54.883,46.776 55.966,43.551 57.908,40.956C58.724,39.868 59.739,38.854 61.033,38.433C62.327,38.013 63.938,38.342 64.681,39.481C64.918,39.844 65.055,40.261 65.176,40.677C67.384,48.265 64.576,57.524 58.457,62.592C55.666,64.903 52.43,65.235 50.994,61.23C49.194,56.207 54.84,54.171 54.864,50.016Z" style="fill:none;stroke:rgb(2,75,77);stroke-width:0.98px;"/>
        <path d="M37.505,60.905C36.701,60.623 35.849,60.437 35.138,59.97C34.506,59.554 34.032,58.943 33.536,58.372C30.268,54.603 25.526,52.147 20.562,51.653C21.399,57.965 25.832,63.675 31.74,66.049C33.676,66.827 35.731,67.264 37.782,67.639C39.906,68.028 43.223,68.645 43.244,66.135C43.263,63.952 39.187,61.495 37.505,60.905Z" style="fill:rgb(221,240,233);fill-rule:nonzero;"/>
        <path d="M37.505,60.905C36.701,60.623 35.849,60.437 35.138,59.97C34.506,59.554 34.032,58.943 33.536,58.372C30.268,54.603 25.526,52.147 20.562,51.653C21.399,57.965 25.832,63.675 31.74,66.049C33.676,66.827 35.731,67.264 37.782,67.639C39.906,68.028 43.223,68.645 43.244,66.135C43.263,63.952 39.187,61.495 37.505,60.905Z" style="fill:none;stroke:rgb(2,75,77);stroke-width:0.98px;"/>
        <path d="M54.284,64.323C55.008,64.069 54.453,65.054 54.872,65.696C57.328,69.457 59.445,73.438 61.193,77.577" style="fill:none;stroke:rgb(2,75,77);stroke-width:0.98px;"/>
        <path d="M51.258,70.147C46.5,69.684 42.198,72.077 38.873,75.29C41.059,76.527 43.709,76.67 46.2,76.349C49.71,75.896 53.209,74.701 54.541,71.422C54.651,71.154 58.072,72.282 58.763,72.518C56.294,71.674 53.89,70.404 51.258,70.147Z" style="fill:rgb(2,75,77);fill-rule:nonzero;"/>
        <path d="M51.258,70.147C46.5,69.684 42.198,72.077 38.873,75.29C41.059,76.527 43.709,76.67 46.2,76.349C49.71,75.896 53.209,74.701 54.541,71.422C54.651,71.154 58.072,72.282 58.763,72.518C56.294,71.674 53.89,70.404 51.258,70.147Z" style="fill:none;stroke:rgb(2,75,77);stroke-width:1.34px;"/>
        <path d="M54.953,64.211C57.925,61.814 60.008,58.338 60.718,54.587" style="fill:none;stroke:rgb(2,75,77);stroke-width:0.98px;stroke-linecap:round;stroke-linejoin:round;"/>
        <path d="M51.607,66.404C49.413,66.515 47.212,65.213 46.254,63.237" style="fill:none;stroke:rgb(2,75,77);stroke-width:0.98px;stroke-linecap:round;stroke-linejoin:round;"/>
        <path d="M42.332,67.346C38.295,67.276 34.342,65.198 31.997,61.911" style="fill:none;stroke:rgb(2,75,77);stroke-width:0.98px;stroke-linecap:round;stroke-linejoin:round;"/>
        <path d="M57.435,41.081C57.793,40.408 57.733,39.575 57.452,38.865C57.173,38.156 56.696,37.544 56.226,36.944C54.628,34.901 52.927,32.778 50.544,31.754" style="fill:none;stroke:rgb(2,75,77);stroke-width:0.98px;stroke-linecap:round;stroke-linejoin:round;"/>
        <path d="M48.521,56.489C47.678,55.123 46.551,53.933 45.234,53.017C43.846,52.052 42.11,51.209 41.677,49.576" style="fill:none;stroke:rgb(2,75,77);stroke-width:0.98px;stroke-linecap:round;stroke-linejoin:round;"/>
        <path d="M34.509,59.028C33.431,57.835 32.971,56.11 33.313,54.537" style="fill:none;stroke:rgb(2,75,77);stroke-width:0.98px;stroke-linecap:round;stroke-linejoin:round;"/>
        <path d="M26.135,52.59C24.545,49.152 24.535,45.021 26.109,41.576" style="fill:none;stroke:rgb(2,75,77);stroke-width:0.98px;stroke-linecap:round;stroke-linejoin:round;"/>
        <path d="M89.876,55.511C90.177,55.768 90.337,56.056 90.352,56.373C90.367,56.691 90.222,56.986 89.921,57.258C89.618,57.53 89.089,57.682 88.333,57.712L82.252,76.678C82.161,76.921 82.07,77.178 81.98,77.45C81.889,77.722 81.768,77.964 81.617,78.176C81.284,78.659 80.784,78.902 80.119,78.902C79.454,78.902 78.969,78.659 78.668,78.176C78.516,77.964 78.403,77.73 78.327,77.473C78.251,77.216 78.183,76.966 78.123,76.723L71.952,57.712C71.317,57.682 70.87,57.53 70.613,57.258C70.356,56.986 70.235,56.691 70.251,56.373C70.265,56.056 70.416,55.768 70.704,55.511C70.991,55.254 71.362,55.125 71.816,55.125C71.906,55.125 72.224,55.118 72.769,55.102C73.313,55.088 73.918,55.08 74.584,55.08C75.189,55.08 75.801,55.102 76.422,55.148C77.041,55.193 77.457,55.292 77.669,55.443C77.82,55.564 77.919,55.715 77.964,55.896C78.009,56.078 78.032,56.244 78.032,56.396C78.032,56.82 77.896,57.121 77.624,57.303C77.352,57.485 77.049,57.606 76.716,57.666C76.565,57.697 76.399,57.712 76.217,57.712L75.31,57.712L80.119,74.591L85.474,57.666L83.885,57.666C83.643,57.666 83.402,57.637 83.16,57.576C82.887,57.515 82.638,57.402 82.411,57.235C82.184,57.069 82.07,56.789 82.07,56.396C82.07,56.244 82.1,56.078 82.161,55.896C82.222,55.715 82.327,55.564 82.479,55.443C82.69,55.261 83.121,55.148 83.772,55.102C84.423,55.057 85.095,55.05 85.791,55.08C86.487,55.08 87.131,55.088 87.72,55.102C88.31,55.118 88.65,55.125 88.741,55.125C89.195,55.125 89.573,55.254 89.876,55.511Z" style="fill:rgb(35,31,32);fill-rule:nonzero;"/>
        <path d="M110.567,60.048C109.961,58.884 109.242,58.007 108.41,57.416C107.578,56.827 106.679,56.532 105.711,56.532C104.773,56.532 103.873,56.827 103.011,57.416C102.149,58.007 101.378,58.884 100.697,60.048C100.017,61.213 99.54,62.673 99.267,64.427L111.746,64.427C111.565,62.673 111.171,61.213 110.567,60.048ZM114.763,65.629C114.718,66.008 114.574,66.333 114.332,66.605C114.211,66.726 114.037,66.817 113.811,66.877C113.583,66.938 113.341,66.984 113.084,67.014C112.827,67.044 112.569,67.067 112.313,67.081C112.056,67.097 111.852,67.104 111.7,67.104L99.041,67.104C99.07,68.102 99.183,69.161 99.381,70.281C99.577,71.4 99.902,72.436 100.357,73.389C100.811,74.342 101.43,75.128 102.217,75.748C103.003,76.368 103.986,76.678 105.166,76.678C106.104,76.678 107.011,76.436 107.889,75.952C108.766,75.469 109.583,74.985 110.339,74.5C111.186,73.926 111.943,73.502 112.608,73.23C113.273,72.957 113.818,73.048 114.241,73.502C114.543,73.805 114.695,74.198 114.695,74.682C114.695,75.469 114.31,76.157 113.538,76.746C112.767,77.336 111.866,77.828 110.838,78.221C109.81,78.614 108.78,78.902 107.753,79.083C106.724,79.264 105.938,79.355 105.394,79.355C103.82,79.355 102.451,78.993 101.287,78.266C100.122,77.54 99.154,76.588 98.383,75.408C97.611,74.228 97.044,72.874 96.681,71.347C96.318,69.82 96.143,68.269 96.159,66.696C96.174,65.123 96.393,63.573 96.817,62.045C97.24,60.518 97.853,59.163 98.655,57.984C99.456,56.804 100.454,55.851 101.65,55.125C102.845,54.399 104.243,54.036 105.847,54.036C107.299,54.036 108.584,54.354 109.704,54.989C110.822,55.624 111.761,56.441 112.517,57.439C113.273,58.437 113.848,59.572 114.241,60.843C114.634,62.113 114.831,63.384 114.831,64.654C114.831,64.926 114.809,65.252 114.763,65.629Z" style="fill:rgb(35,31,32);fill-rule:nonzero;"/>
        <path d="M137.745,59.527C137.352,59.406 136.988,59.194 136.656,58.891L136.157,58.392C135.976,58.211 135.756,58.022 135.499,57.825C135.241,57.629 134.978,57.53 134.705,57.53C134.069,57.53 133.457,57.764 132.867,58.233C132.277,58.702 131.717,59.27 131.189,59.935C130.659,60.6 130.175,61.296 129.735,62.022C129.298,62.748 128.927,63.368 128.625,63.883L128.625,75.725L134.297,75.725C134.811,75.725 135.211,75.854 135.499,76.111C135.786,76.368 135.93,76.663 135.93,76.996C135.93,77.299 135.794,77.578 135.522,77.835C135.249,78.093 134.825,78.221 134.251,78.221L123.361,78.221C123.18,78.221 122.983,78.206 122.772,78.176C122.56,78.146 122.378,78.055 122.227,77.904C121.924,77.692 121.758,77.457 121.728,77.2C121.697,76.943 121.75,76.701 121.887,76.474C122.023,76.247 122.234,76.066 122.522,75.93C122.809,75.793 123.119,75.725 123.452,75.725L126.175,75.725L126.175,57.621L125.267,57.621C124.995,57.621 124.723,57.629 124.45,57.643C124.178,57.659 123.921,57.637 123.679,57.576C123.376,57.515 123.111,57.402 122.885,57.235C122.658,57.069 122.544,56.789 122.544,56.396C122.544,56.003 122.665,55.685 122.907,55.443C123.119,55.292 123.452,55.193 123.905,55.148C124.36,55.102 124.828,55.08 125.313,55.08C125.796,55.08 126.258,55.088 126.696,55.102C127.135,55.118 127.445,55.125 127.626,55.125C127.989,55.125 128.261,55.261 128.444,55.534C128.593,55.745 128.692,56.117 128.738,56.645C128.783,57.175 128.807,57.727 128.807,58.302C128.807,58.604 128.798,58.907 128.783,59.209C128.768,59.512 128.761,59.799 128.761,60.071C129.123,59.406 129.547,58.748 130.031,58.097C130.515,57.447 131.044,56.857 131.619,56.327C132.194,55.799 132.837,55.368 133.548,55.035C134.258,54.702 135.023,54.535 135.839,54.535C136.384,54.535 136.951,54.649 137.541,54.876C138.131,55.102 138.614,55.42 138.993,55.828C139.371,56.237 139.59,56.706 139.651,57.235C139.711,57.764 139.499,58.317 139.016,58.891C138.562,59.436 138.138,59.648 137.745,59.527Z" style="fill:rgb(35,31,32);fill-rule:nonzero;"/>
        <path d="M163.903,76.429C163.283,76.928 162.557,77.344 161.726,77.677C160.893,78.01 160.062,78.259 159.23,78.425C158.398,78.591 157.755,78.675 157.301,78.675C156.695,78.675 156.106,78.591 155.531,78.425C154.957,78.259 154.412,77.994 153.899,77.631C153.202,77.148 152.673,76.542 152.31,75.816C151.947,75.09 151.682,74.319 151.516,73.502C151.35,72.685 151.251,71.846 151.221,70.984C151.191,70.121 151.176,69.298 151.176,68.511L151.176,59.209L148.498,59.209C148.105,59.209 147.742,59.134 147.409,58.982C147.076,58.831 146.91,58.468 146.91,57.893C146.91,57.379 147.129,57.031 147.569,56.849C148.007,56.668 148.453,56.547 148.907,56.486C149.33,56.456 149.746,56.456 150.154,56.486C150.563,56.517 150.888,56.532 151.13,56.532L151.13,51.087C151.13,50.603 151.213,50.179 151.38,49.816C151.546,49.453 151.75,49.197 151.992,49.045C152.265,48.834 152.544,48.788 152.832,48.909C153.119,49.03 153.354,49.272 153.535,49.635C153.655,49.907 153.739,50.429 153.784,51.2C153.83,51.972 153.853,52.751 153.853,53.537C153.853,54.172 153.845,54.778 153.83,55.352C153.815,55.927 153.808,56.35 153.808,56.622C154.17,56.593 154.715,56.577 155.441,56.577L157.71,56.577C158.587,56.577 159.434,56.608 160.251,56.668C161.068,56.729 161.596,56.834 161.839,56.986C162.171,57.228 162.361,57.485 162.406,57.757C162.451,58.029 162.399,58.279 162.247,58.506C162.096,58.732 161.868,58.922 161.567,59.073C161.264,59.224 160.946,59.3 160.613,59.3L153.808,59.163L153.808,68.647C153.808,69.04 153.815,69.517 153.83,70.076C153.845,70.636 153.875,71.211 153.921,71.801C153.966,72.39 154.034,72.951 154.125,73.479C154.216,74.009 154.352,74.44 154.533,74.772C154.987,75.71 155.759,76.179 156.848,76.179C157.18,76.179 157.521,76.119 157.868,75.998C158.216,75.877 158.556,75.725 158.89,75.544C159.252,75.363 159.608,75.158 159.956,74.931C160.303,74.704 160.644,74.485 160.977,74.273C161.702,73.79 162.375,73.434 162.996,73.207C163.615,72.98 164.092,73.079 164.425,73.502C164.697,73.865 164.833,74.273 164.833,74.727C164.833,75.363 164.523,75.93 163.903,76.429Z" style="fill:rgb(35,31,32);fill-rule:nonzero;"/>
        <path d="M22.459,98.186C23.543,98.897 24.441,100.058 25.153,101.667C25.864,103.276 26.363,105.08 26.652,107.079C26.939,109.078 26.999,111.137 26.829,113.254C26.659,115.371 26.228,117.303 25.533,119.047C24.839,120.792 23.864,122.232 22.612,123.367C21.358,124.502 19.799,125.069 17.936,125.069C17.19,125.069 16.521,124.968 15.928,124.765C15.335,124.561 14.895,124.349 14.607,124.129C14.319,123.909 14.234,123.697 14.353,123.494C14.471,123.291 14.887,123.189 15.598,123.189C16.648,123.189 17.512,122.622 18.19,121.487C18.867,120.352 19.384,118.937 19.74,117.243C20.096,115.549 20.332,113.711 20.451,111.729C20.57,109.747 20.587,107.91 20.502,106.215C20.417,104.521 20.265,103.107 20.045,101.972C19.824,100.837 19.562,100.269 19.257,100.269C18.681,100.269 18.105,100.65 17.529,101.412C16.953,102.175 16.403,103.149 15.878,104.335C15.352,105.521 14.862,106.85 14.404,108.324C13.946,109.798 13.523,111.23 13.133,112.619C12.743,114.008 12.413,115.295 12.142,116.481C11.871,117.667 11.668,118.582 11.532,119.225C11.871,120.106 12.21,120.826 12.549,121.385C12.887,121.944 13.15,122.401 13.337,122.757C13.523,123.113 13.608,123.359 13.591,123.494C13.573,123.629 13.379,123.697 13.007,123.697C11.075,123.697 9.5,123.147 8.28,122.046C7.06,120.945 6.103,119.496 5.409,117.701C4.714,115.905 4.24,113.856 3.986,111.551C3.732,109.247 3.605,106.893 3.605,104.487C3.605,103.403 3.648,102.183 3.732,100.828C3.816,99.474 3.926,98.11 4.062,96.738C4.197,95.366 4.341,94.019 4.494,92.698C4.647,91.376 4.79,90.191 4.926,89.14C5.061,88.09 5.171,87.234 5.256,86.574C5.34,85.913 5.383,85.549 5.383,85.481C5.383,85.312 5.434,85.075 5.536,84.769C5.637,84.465 5.943,84.312 6.45,84.312C6.687,84.312 7.103,84.406 7.695,84.592C8.288,84.778 8.898,85.024 9.525,85.328C10.152,85.634 10.702,85.989 11.177,86.396C11.651,86.802 11.888,87.226 11.888,87.666C11.888,88.107 11.778,88.971 11.558,90.258C11.337,91.546 11.101,93.155 10.846,95.086C10.592,97.017 10.363,99.228 10.16,101.718C9.957,104.208 9.856,106.859 9.856,109.671C9.856,111.162 9.932,112.492 10.084,113.66C10.237,114.829 10.448,115.871 10.719,116.786C10.923,115.464 11.236,113.864 11.66,111.983C12.083,110.103 12.549,108.24 13.057,106.393C13.565,104.547 14.099,102.887 14.658,101.412C15.217,99.939 15.751,98.948 16.259,98.44C16.665,98.034 17.181,97.763 17.809,97.627C18.435,97.492 19.07,97.449 19.715,97.5C20.358,97.551 20.934,97.652 21.443,97.805C21.951,97.957 22.289,98.084 22.459,98.186Z" style="fill:rgb(104,197,175);fill-rule:nonzero;"/>
        <path d="M43.447,121.156C43.989,121.156 44.514,120.631 45.023,119.578C45.531,118.525 45.971,117.2 46.344,115.604C46.716,114.008 46.996,112.284 47.183,110.433C47.368,108.583 47.411,106.859 47.31,105.263C47.208,103.667 46.936,102.343 46.496,101.289C46.056,100.237 45.379,99.711 44.464,99.711C44.057,99.711 43.769,100 43.6,100.577C43.43,101.154 43.278,101.825 43.142,102.589C43.007,103.352 42.838,104.125 42.634,104.907C42.431,105.688 42.109,106.282 41.669,106.689C41.669,108.218 41.618,109.831 41.516,111.529C41.415,113.227 41.372,114.789 41.389,116.216C41.406,117.641 41.558,118.822 41.846,119.755C42.134,120.689 42.668,121.156 43.447,121.156ZM44.82,96.611C45.564,96.611 46.259,96.797 46.903,97.17C47.546,97.543 48.105,98.153 48.58,98.999C49.054,99.847 49.435,100.938 49.724,102.277C50.011,103.616 50.155,105.249 50.155,107.181C50.155,109.112 49.986,111.068 49.647,113.051C49.308,115.033 48.766,116.82 48.021,118.412C47.276,120.005 46.319,121.301 45.15,122.3C43.981,123.299 42.566,123.799 40.906,123.799C39.415,123.799 38.188,123.418 37.222,122.656C36.256,121.893 35.494,120.928 34.935,119.759C34.376,118.59 33.995,117.303 33.792,115.896C33.588,114.491 33.487,113.144 33.487,111.856C33.487,110.671 33.554,109.442 33.69,108.172C33.825,106.901 34.062,105.724 34.402,104.64C34.739,103.556 35.215,102.624 35.824,101.845C36.434,101.066 37.196,100.574 38.111,100.371C38.416,99.525 38.823,98.847 39.331,98.339C39.839,97.83 40.398,97.449 41.008,97.195C41.618,96.941 42.253,96.781 42.914,96.712C43.574,96.645 44.21,96.611 44.82,96.611Z" style="fill:rgb(104,197,175);fill-rule:nonzero;"/>
        <path d="M77.191,125.222C77.191,126.712 77.25,127.898 77.369,128.779C77.487,129.66 77.614,130.363 77.75,130.888C77.885,131.413 78.012,131.794 78.132,132.032C78.25,132.268 78.309,132.489 78.309,132.692C78.309,133.166 77.911,133.497 77.115,133.683C76.319,133.869 75.438,133.793 74.472,133.454C73.507,133.116 72.626,132.464 71.83,131.498C71.033,130.533 70.635,129.135 70.635,127.306C70.635,125.476 70.72,123.503 70.89,121.385C71.059,119.268 71.245,117.235 71.448,115.287C71.652,113.339 71.838,111.602 72.008,110.078C72.177,108.553 72.262,107.486 72.262,106.876C72.262,106.266 72.16,105.758 71.957,105.351C71.754,104.945 71.516,104.606 71.245,104.335C70.941,104.03 70.618,103.793 70.28,103.623C69.67,106.3 69.144,108.825 68.704,111.196C68.501,112.212 68.315,113.254 68.145,114.321C67.975,115.388 67.815,116.422 67.663,117.421C67.51,118.421 67.391,119.344 67.307,120.191C67.222,121.038 67.18,121.749 67.18,122.325C67.18,122.664 67.044,122.918 66.773,123.087C66.806,123.359 66.663,123.537 66.341,123.621C66.019,123.705 65.452,123.748 64.639,123.748C63.182,123.748 62.013,123.232 61.132,122.198C60.251,121.165 59.573,119.802 59.099,118.107C58.625,116.413 58.328,114.474 58.21,112.288C58.091,110.103 58.074,107.85 58.159,105.529C58.243,103.209 58.413,100.922 58.667,98.669C58.922,96.416 59.175,94.367 59.43,92.519C59.684,90.673 59.904,89.123 60.091,87.869C60.276,86.617 60.37,85.837 60.37,85.532C60.37,85.328 60.344,85.075 60.294,84.769C60.243,84.465 60.243,84.168 60.294,83.88C60.344,83.593 60.48,83.339 60.7,83.118C60.92,82.898 61.285,82.787 61.793,82.787C62.131,82.787 62.614,82.838 63.241,82.94C63.868,83.042 64.469,83.212 65.045,83.448C65.621,83.685 66.129,83.999 66.57,84.389C67.01,84.778 67.231,85.261 67.231,85.837C67.231,86.21 67.154,86.896 67.002,87.895C66.849,88.895 66.654,90.106 66.418,91.529C66.18,92.952 65.926,94.535 65.655,96.28C65.383,98.026 65.129,99.838 64.893,101.718C64.655,103.598 64.461,105.504 64.308,107.435C64.156,109.366 64.08,111.23 64.08,113.025C64.08,114.279 64.164,115.397 64.334,116.379C64.503,117.362 64.723,118.226 64.994,118.971C65.164,118.056 65.376,116.998 65.63,115.795C65.884,114.593 66.18,113.355 66.519,112.085C66.858,110.814 67.205,109.561 67.561,108.324C67.917,107.088 68.272,105.978 68.628,104.995C68.984,104.013 69.322,103.225 69.645,102.632C69.966,102.04 70.262,101.743 70.534,101.743C70.974,101.743 71.618,101.828 72.465,101.997C73.312,102.167 74.159,102.454 75.006,102.861C75.853,103.267 76.581,103.819 77.191,104.513C77.801,105.207 78.106,106.063 78.106,107.079C78.106,108.13 78.055,109.442 77.954,111.017C77.852,112.593 77.75,114.237 77.649,115.947C77.547,117.659 77.445,119.335 77.344,120.978C77.242,122.622 77.191,124.036 77.191,125.222Z" style="fill:rgb(104,197,175);fill-rule:nonzero;"/>
        <path d="M97.824,99.202C97.146,99.202 96.537,99.44 95.995,99.914C95.453,100.388 94.978,101.015 94.572,101.794C94.166,102.574 93.827,103.471 93.555,104.487C93.284,105.504 93.081,106.571 92.946,107.689C94.03,108.164 94.961,108.273 95.741,108.019C96.52,107.765 97.164,107.325 97.672,106.698C98.18,106.071 98.552,105.326 98.79,104.462C99.026,103.598 99.145,102.777 99.145,101.997C99.145,101.218 99.035,100.558 98.815,100.015C98.594,99.474 98.264,99.202 97.824,99.202ZM89.338,87.158C89.472,86.853 89.693,86.548 89.998,86.243C90.303,85.938 90.641,85.676 91.014,85.455C91.387,85.236 91.752,85.075 92.107,84.973C92.463,84.871 92.776,84.871 93.048,84.973C93.284,85.041 93.597,85.27 93.988,85.659C94.377,86.049 94.826,86.481 95.335,86.955C95.842,87.43 96.41,87.895 97.037,88.352C97.663,88.81 98.333,89.158 99.044,89.394C100.433,89.869 101.204,90.352 101.357,90.843C101.509,91.334 101.263,91.681 100.62,91.884C99.941,92.088 99.145,92.181 98.231,92.164C97.316,92.147 96.316,91.952 95.233,91.579C94.521,91.343 93.801,90.995 93.073,90.537C92.343,90.08 91.692,89.623 91.116,89.165C90.54,88.708 90.083,88.294 89.744,87.92C89.405,87.548 89.269,87.294 89.338,87.158ZM107.379,108.197C107.481,107.96 107.599,107.799 107.735,107.714C107.869,107.63 108.005,107.613 108.141,107.663C108.277,107.714 108.378,107.825 108.446,107.994C108.514,108.164 108.497,108.384 108.396,108.655C108.327,108.825 108.192,109.273 107.988,110.001C107.785,110.73 107.488,111.594 107.1,112.593C106.709,113.593 106.218,114.651 105.625,115.769C105.032,116.888 104.329,117.921 103.517,118.87C102.703,119.818 101.763,120.597 100.696,121.207C99.629,121.817 98.434,122.122 97.113,122.122C95.351,122.122 93.767,121.766 92.361,121.055C90.955,120.343 89.769,119.428 88.804,118.31C87.839,117.192 87.101,115.965 86.593,114.626C86.085,113.288 85.831,111.975 85.831,110.687C85.831,109.028 86.016,107.427 86.39,105.885C86.762,104.344 87.219,102.929 87.762,101.641C88.303,100.354 88.888,99.237 89.515,98.287C90.142,97.34 90.71,96.628 91.217,96.153C91.726,95.713 92.386,95.383 93.2,95.162C94.013,94.942 94.834,94.824 95.665,94.806C96.495,94.79 97.282,94.832 98.027,94.933C98.772,95.035 99.349,95.188 99.756,95.391C100.535,95.764 101.17,96.484 101.661,97.551C102.152,98.618 102.399,99.863 102.399,101.286C102.399,103.962 101.839,105.986 100.722,107.359C99.603,108.731 98.214,109.417 96.554,109.417C95.944,109.417 95.309,109.349 94.648,109.214C93.988,109.078 93.385,108.926 92.844,108.756C92.743,110.01 92.844,111.246 93.149,112.466C93.454,113.686 93.869,114.77 94.394,115.719C94.919,116.667 95.529,117.438 96.223,118.031C96.918,118.624 97.621,118.92 98.333,118.92C99.417,118.92 100.382,118.675 101.23,118.183C102.076,117.693 102.83,117.074 103.491,116.328C104.152,115.583 104.711,114.77 105.168,113.889C105.625,113.008 106.015,112.17 106.337,111.373C106.658,110.578 106.896,109.883 107.049,109.29C107.201,108.697 107.311,108.333 107.379,108.197Z" style="fill:rgb(104,197,175);fill-rule:nonzero;"/>
        <path d="M140.514,114.143C140.514,115.973 140.607,117.506 140.793,118.742C140.98,119.979 141.132,120.971 141.251,121.715C141.369,122.461 141.395,122.995 141.327,123.316C141.259,123.638 140.954,123.799 140.412,123.799C139.565,123.799 138.828,123.603 138.201,123.214C137.574,122.826 137.032,122.3 136.575,121.639C136.118,120.978 135.728,120.242 135.406,119.428C135.084,118.615 134.822,117.769 134.618,116.888C134.144,114.854 133.89,112.551 133.857,109.976C133.076,112.415 132.332,114.567 131.62,116.43C131.316,117.243 131.002,118.039 130.679,118.819C130.358,119.599 130.035,120.285 129.715,120.877C129.393,121.47 129.095,121.953 128.825,122.325C128.554,122.698 128.317,122.884 128.113,122.884C127.707,122.884 127.174,122.826 126.513,122.706C125.853,122.588 125.208,122.334 124.582,121.944C123.954,121.555 123.413,121.013 122.955,120.318C122.498,119.624 122.27,118.717 122.27,117.599C122.27,116.854 122.337,115.838 122.473,114.55C122.608,113.263 122.752,111.891 122.904,110.433C123.057,108.977 123.218,107.495 123.388,105.986C123.557,104.479 123.684,103.115 123.769,101.895C123.853,100.676 123.861,99.685 123.794,98.923C123.726,98.16 123.557,97.78 123.286,97.78C122.777,97.78 122.303,98.245 121.862,99.177C121.422,100.109 120.999,101.32 120.593,102.81C120.186,104.302 119.796,105.97 119.424,107.816C119.05,109.663 118.694,111.493 118.357,113.305C118.018,115.118 117.695,116.828 117.391,118.437C117.086,120.047 116.798,121.343 116.527,122.325C116.696,123.003 116.756,123.477 116.704,123.748C116.653,124.019 116.306,124.155 115.663,124.155C114.511,124.155 113.554,123.799 112.791,123.087C112.029,122.376 111.427,121.453 110.987,120.318C110.547,119.183 110.234,117.896 110.047,116.455C109.86,115.016 109.734,113.584 109.666,112.161C109.599,110.738 109.582,109.375 109.615,108.07C109.65,106.766 109.666,105.674 109.666,104.792C109.666,104.42 109.565,104.166 109.361,104.03C109.158,103.895 109.056,103.641 109.056,103.267C109.056,102.895 109.43,102.666 110.174,102.581C110.919,102.497 111.741,102.548 112.639,102.734C113.536,102.921 114.359,103.251 115.104,103.725C115.849,104.2 116.222,104.809 116.222,105.555C116.222,107.046 116.128,108.638 115.943,110.331C115.756,112.026 115.663,113.787 115.663,115.617L115.663,116.684C115.663,117.023 115.68,117.328 115.714,117.599C115.882,116.549 116.11,115.261 116.399,113.737C116.686,112.212 117.024,110.611 117.412,108.934C117.801,107.257 118.24,105.589 118.732,103.928C119.222,102.268 119.754,100.777 120.329,99.456C120.903,98.135 121.521,97.068 122.18,96.255C122.839,95.442 123.541,95.035 124.285,95.035C125.738,95.035 126.855,95.543 127.633,96.56C128.41,97.576 128.95,98.847 129.256,100.371C129.56,101.895 129.703,103.539 129.687,105.3C129.669,107.062 129.593,108.705 129.457,110.23C129.323,111.754 129.188,113.025 129.052,114.041C128.917,115.058 128.901,115.566 129.002,115.566C129.104,115.566 129.272,115.261 129.509,114.651C129.744,114.041 130.033,113.279 130.371,112.364C130.709,111.45 131.098,110.451 131.538,109.366C131.977,108.282 132.425,107.282 132.881,106.368C133.338,105.453 133.794,104.69 134.251,104.08C134.708,103.471 135.155,103.166 135.596,103.166C136.237,103.166 136.888,103.217 137.548,103.318C138.207,103.42 138.8,103.598 139.323,103.852C139.848,104.106 140.278,104.454 140.616,104.894C140.954,105.334 141.124,105.893 141.124,106.571C141.124,107.418 141.022,108.469 140.819,109.722C140.615,110.975 140.514,112.449 140.514,114.143Z" style="fill:rgb(104,197,175);fill-rule:nonzero;"/>
        <path d="M161.095,99.202C160.417,99.202 159.807,99.44 159.266,99.914C158.724,100.388 158.249,101.015 157.843,101.794C157.436,102.574 157.097,103.471 156.826,104.487C156.555,105.504 156.352,106.571 156.217,107.689C157.3,108.164 158.232,108.273 159.012,108.019C159.79,107.765 160.435,107.325 160.943,106.698C161.451,106.071 161.823,105.326 162.061,104.462C162.297,103.598 162.416,102.777 162.416,101.997C162.416,101.218 162.306,100.558 162.086,100.015C161.865,99.474 161.535,99.202 161.095,99.202ZM170.65,108.197C170.751,107.96 170.869,107.799 171.005,107.714C171.14,107.63 171.276,107.613 171.411,107.663C171.547,107.714 171.649,107.825 171.717,107.994C171.784,108.164 171.768,108.384 171.666,108.655C171.598,108.825 171.462,109.273 171.259,110.001C171.056,110.73 170.759,111.594 170.37,112.593C169.98,113.593 169.488,114.651 168.896,115.769C168.303,116.888 167.6,117.921 166.787,118.87C165.974,119.818 165.033,120.597 163.967,121.207C162.9,121.817 161.705,122.122 160.384,122.122C158.621,122.122 157.037,121.766 155.632,121.055C154.226,120.343 153.04,119.428 152.074,118.31C151.11,117.192 150.372,115.965 149.864,114.626C149.356,113.288 149.102,111.975 149.102,110.687C149.102,109.028 149.287,107.427 149.66,105.885C150.033,104.344 150.49,102.929 151.032,101.641C151.574,100.354 152.158,99.237 152.786,98.287C153.412,97.34 153.981,96.628 154.488,96.153C154.997,95.713 155.657,95.383 156.471,95.162C157.283,94.942 158.105,94.824 158.936,94.806C159.765,94.79 160.553,94.832 161.298,94.933C162.043,95.035 162.62,95.188 163.027,95.391C163.806,95.764 164.441,96.484 164.932,97.551C165.423,98.618 165.669,99.863 165.669,101.286C165.669,103.962 165.11,105.986 163.992,107.359C162.874,108.731 161.485,109.417 159.824,109.417C159.215,109.417 158.579,109.349 157.919,109.214C157.258,109.078 156.656,108.926 156.114,108.756C156.013,110.01 156.114,111.246 156.42,112.466C156.725,113.686 157.139,114.77 157.665,115.719C158.19,116.667 158.8,117.438 159.494,118.031C160.189,118.624 160.892,118.92 161.604,118.92C162.688,118.92 163.652,118.675 164.5,118.183C165.347,117.693 166.101,117.074 166.762,116.328C167.422,115.583 167.982,114.77 168.439,113.889C168.896,113.008 169.285,112.17 169.608,111.373C169.929,110.578 170.166,109.883 170.319,109.29C170.472,108.697 170.581,108.333 170.65,108.197Z" style="fill:rgb(104,197,175);fill-rule:nonzero;"/>
    </g>
</svg>
